 http://www.imdb.com/title/tt0454876/

Source: Life.Of.Pi.2012.720p.BluRay.x264-CROSSBOW Thanks!

Subs: Arabic, Argentinian, Brazilian, Bulgarian, Croatian, Danish, Dutch, English, Farsi-Persian, Finnish, Hebrew, Indonesian, Malay, Polish, Portuguese, Russian, Servian, Sinhala, Slovenian, Spanish, Swedish, Vietnamese.

Sample and Screens included.

General
Complete name                            : Life of Pi-720p MP4 AAC x264 BRRip 2012-CC.mp4
Format                                   : MPEG-4
Format profile                           : Base Media
Codec ID                                 : isom
File size                                : 2.94 GiB
Duration                                 : 2h 6mn
Overall bit rate mode                    : Variable
Overall bit rate                         : 3 320 Kbps
Encoded date                             : UTC 2013-03-01 08:08:25

Video
ID                                       : 1
Format                                   : AVC
Format/Info                              : Advanced Video Codec
Format profile                           : High@L4.1
Format settings, CABAC                   : Yes
Format settings, ReFrames                : 5 frames
Codec ID                                 : avc1
Codec ID/Info                            : Advanced Video Coding
Duration                                 : 2h 6mn
Bit rate                                 : 2 958 Kbps
Maximum bit rate                         : 17.1 Mbps
Width                                    : 1 280 pixels
Height                                   : 688 pixels
Display aspect ratio                     : 1.85:1
Frame rate mode                          : Variable
Frame rate                               : 23.976 fps
Minimum frame rate                       : 11.905 fps
Maximum frame rate                       : 24.390 fps
Color space                              : YUV
Chroma subsampling                       : 4:2:0
Bit depth                                : 8 bits
Scan type                                : Progressive
Bits/(Pixel*Frame)                       : 0.140
Stream size                              : 2.60 GiB (88%)
Writing library                          : x264 core 112

Audio
ID                                       : 2
Format                                   : AAC
Format/Info                              : Advanced Audio Codec
Format profile                           : LC
Codec ID                                 : 40
Duration                                 : 2h 6mn
Bit rate mode                            : Variable
Bit rate                                 : 384 Kbps
Maximum bit rate                         : 657 Kbps
Channel(s)                               : 6 channels
Channel positions                        : Front: L C R, Side: L R, LFE
Sampling rate                            : 48.0 KHz
Compression mode                         : Lossy
Delay relative to video                  : 125ms
Stream size                              : 348 MiB (12%)
Language                                 : English

Enjoy...

Coming up: Mortal Kombat, Tropa de Elite, Le Samourai, Vertigo and more...